<mxfile host="app.diagrams.net" modified="2023-06-01T15:14:01.236Z" agent="Mozilla/5.0 (Windows NT 10.0; Win64; x64) AppleWebKit/537.36 (KHTML, like Gecko) Chrome/113.0.0.0 Safari/537.36" version="21.1.7" etag="YVHSySHd7B7fLf1bLiWc" type="github">
  <diagram name="第 1 页" id="U4Yr-hKs-MtW__nvb5-f">
    <mxGraphModel>
      <root>
        <mxCell id="0" />
        <mxCell id="1" parent="0" />
      </root>
    </mxGraphModel>
  </diagram>
</mxfile>
